<svg width="1280" height="420" viewBox="0 0 1280 420" xmlns="http://www.w3.org/2000/svg" role="img">
  <title>Imran — Principal Cloud Architect · CTO · AI &amp; FinOps Leader</title>
  <desc>GitHub profile banner for Imran, Founder of Dev Warriors, Chicago IL</desc>
  <defs>
    <linearGradient id="bg" x1="0" y1="0" x2="1" y2="1">
      <stop offset="0%" stop-color="#040810"/>
      <stop offset="40%" stop-color="#071325"/>
      <stop offset="100%" stop-color="#0b1e3a"/>
    </linearGradient>
    <linearGradient id="stripe" x1="0" y1="0" x2="1" y2="0">
      <stop offset="0%" stop-color="#4da6ff"/>
      <stop offset="50%" stop-color="#818cf8"/>
      <stop offset="100%" stop-color="#4da6ff"/>
    </linearGradient>
    <linearGradient id="rightpanel" x1="0" y1="0" x2="1" y2="0">
      <stop offset="0%" stop-color="#071325" stop-opacity="0"/>
      <stop offset="100%" stop-color="#0d243f" stop-opacity="1"/>
    </linearGradient>
    <linearGradient id="avatarbg" x1="0" y1="0" x2="1" y2="1">
      <stop offset="0%" stop-color="#0d2444"/>
      <stop offset="100%" stop-color="#071325"/>
    </linearGradient>
    <linearGradient id="namefade" x1="0" y1="0" x2="1" y2="0">
      <stop offset="0%" stop-color="#e6edf3"/>
      <stop offset="100%" stop-color="#7ab8f5"/>
    </linearGradient>
    <clipPath id="av"><circle cx="200" cy="210" r="130"/></clipPath>
    <filter id="softglow">
      <feGaussianBlur in="SourceGraphic" stdDeviation="18" result="blur"/>
      <feComposite in="SourceGraphic" in2="blur" operator="over"/>
    </filter>
  </defs>

  <!-- BG -->
  <rect width="1280" height="420" fill="url(#bg)"/>

  <!-- Right panel tint -->
  <rect x="700" y="0" width="580" height="420" fill="url(#rightpanel)"/>

  <!-- Grid texture -->
  <g stroke="#0f2540" stroke-width="0.6" opacity="0.55">
    <line x1="0" y1="70" x2="1280" y2="70"/>
    <line x1="0" y1="140" x2="1280" y2="140"/>
    <line x1="0" y1="210" x2="1280" y2="210"/>
    <line x1="0" y1="280" x2="1280" y2="280"/>
    <line x1="0" y1="350" x2="1280" y2="350"/>
    <line x1="128" y1="0" x2="128" y2="420"/>
    <line x1="256" y1="0" x2="256" y2="420"/>
    <line x1="384" y1="0" x2="384" y2="420"/>
    <line x1="512" y1="0" x2="512" y2="420"/>
    <line x1="640" y1="0" x2="640" y2="420"/>
    <line x1="768" y1="0" x2="768" y2="420"/>
    <line x1="896" y1="0" x2="896" y2="420"/>
    <line x1="1024" y1="0" x2="1024" y2="420"/>
    <line x1="1152" y1="0" x2="1152" y2="420"/>
  </g>

  <!-- Diagonal slashes right side -->
  <g stroke="#132b4a" stroke-width="0.8" opacity="0.5">
    <line x1="900" y1="0" x2="1280" y2="340"/>
    <line x1="960" y1="0" x2="1280" y2="260"/>
    <line x1="1030" y1="0" x2="1280" y2="190"/>
    <line x1="860" y1="0" x2="1240" y2="420"/>
  </g>

  <!-- Glow bloom behind avatar -->
  <circle cx="200" cy="210" r="160" fill="#4da6ff" opacity="0.04" filter="url(#softglow)"/>

  <!-- TOP accent stripe -->
  <rect x="0" y="0" width="1280" height="4" fill="url(#stripe)"/>

  <!-- BOTTOM accent stripe -->
  <rect x="0" y="416" width="1280" height="4" fill="url(#stripe)"/>

  <!-- Left vertical bar -->
  <rect x="64" y="55" width="3" height="310" fill="url(#stripe)" rx="2"/>

  <!-- ── AVATAR ── -->
  <!-- Outer pulse rings -->
  <circle cx="200" cy="210" r="148" fill="none" stroke="#4da6ff" stroke-width="0.6" opacity="0.18"/>
  <circle cx="200" cy="210" r="140" fill="none" stroke="#4da6ff" stroke-width="0.8" opacity="0.28"/>
  <!-- Dashed orbit -->
  <circle cx="200" cy="210" r="155" fill="none" stroke="#1e3a5f" stroke-width="1" stroke-dasharray="6 7" opacity="0.5"/>
  <!-- Compass dots -->
  <circle cx="200" cy="55" r="3.5" fill="#4da6ff" opacity="0.7"/>
  <circle cx="355" cy="210" r="3.5" fill="#4da6ff" opacity="0.7"/>
  <circle cx="200" cy="365" r="3.5" fill="#4da6ff" opacity="0.7"/>
  <circle cx="45" cy="210" r="3.5" fill="#4da6ff" opacity="0.7"/>
  <!-- Avatar circle -->
  <circle cx="200" cy="210" r="130" fill="url(#avatarbg)" stroke="#4da6ff" stroke-width="3"/>
  <circle cx="200" cy="210" r="126" fill="none" stroke="#1e3a5f" stroke-width="1"/>
  <!-- Initials -->
  <text x="200" y="233" text-anchor="middle" font-family="'Segoe UI',system-ui,sans-serif" font-size="90" font-weight="800" fill="#4da6ff" opacity="0.95">I</text>
  <!-- Sub label inside avatar -->
  <text x="200" y="268" text-anchor="middle" font-family="'Segoe UI',system-ui,sans-serif" font-size="11" font-weight="600" fill="#7ab8f5" letter-spacing="3.5" opacity="0.8">IMRAN</text>

  <!-- ── MAIN TEXT AREA ── -->

  <!-- Name with gradient fill via rect mask trick -->
  <text x="360" y="140" font-family="'Segoe UI',system-ui,sans-serif" font-size="72" font-weight="800" fill="#e6edf3" letter-spacing="-1.5">Imran</text>

  <!-- Gradient underline -->
  <rect x="360" y="153" width="500" height="3" fill="url(#stripe)" rx="1.5"/>

  <!-- Title / Role -->
  <text x="362" y="195" font-family="'Segoe UI',system-ui,sans-serif" font-size="20" font-weight="600" fill="#4da6ff" letter-spacing="0.3">Principal Cloud Architect  ·  CTO  ·  AI &amp; FinOps Leader</text>

  <!-- Company + location -->
  <text x="364" y="228" font-family="'Segoe UI',system-ui,sans-serif" font-size="15" font-weight="500" fill="#7ab8f5" letter-spacing="0.8">⚔  Founder @ Dev Warriors  ·  📍 Chicago, IL</text>

  <!-- ── SKILL PILLS ROW 1 ── -->
  <g font-family="'Segoe UI',system-ui,sans-serif" font-size="12" font-weight="600">
    <rect x="362" y="254" width="118" height="28" rx="14" fill="#071a38" stroke="#1e4a80" stroke-width="1.2"/>
    <text x="421" y="272" text-anchor="middle" fill="#60a5fa">☁ Azure Expert</text>

    <rect x="490" y="254" width="106" height="28" rx="14" fill="#180f00" stroke="#3d2600" stroke-width="1.2"/>
    <text x="543" y="272" text-anchor="middle" fill="#fb923c">AWS Advanced</text>

    <rect x="606" y="254" width="116" height="28" rx="14" fill="#180d0d" stroke="#3d1515" stroke-width="1.2"/>
    <text x="664" y="272" text-anchor="middle" fill="#f87171">🔒 Zero Trust</text>

    <rect x="732" y="254" width="100" height="28" rx="14" fill="#170f36" stroke="#2d1f6a" stroke-width="1.2"/>
    <text x="782" y="272" text-anchor="middle" fill="#a78bfa">🤖 LLMOps</text>

    <rect x="842" y="254" width="94" height="28" rx="14" fill="#0a2516" stroke="#1a4a2b" stroke-width="1.2"/>
    <text x="889" y="272" text-anchor="middle" fill="#4ade80">💰 FinOps</text>

    <rect x="946" y="254" width="110" height="28" rx="14" fill="#071a38" stroke="#1e4a80" stroke-width="1.2"/>
    <text x="1001" y="272" text-anchor="middle" fill="#93c5fd">🐳 Kubernetes</text>
  </g>

  <!-- ── SKILL PILLS ROW 2 ── -->
  <g font-family="'Segoe UI',system-ui,sans-serif" font-size="11" font-weight="600">
    <rect x="362" y="294" width="86" height="26" rx="13" fill="#0d1f38" stroke="#1e3a5f" stroke-width="1"/>
    <text x="405" y="311" text-anchor="middle" fill="#7ab8f5">🔁 BCDR</text>

    <rect x="458" y="294" width="98" height="26" rx="13" fill="#170f36" stroke="#2d1f6a" stroke-width="1"/>
    <text x="507" y="311" text-anchor="middle" fill="#a78bfa">⚙ Terraform</text>

    <rect x="566" y="294" width="82" height="26" rx="13" fill="#0a2516" stroke="#1a4a2b" stroke-width="1"/>
    <text x="607" y="311" text-anchor="middle" fill="#4ade80">🐍 Python</text>

    <rect x="658" y="294" width="84" height="26" rx="13" fill="#180d0d" stroke="#3d1515" stroke-width="1"/>
    <text x="700" y="311" text-anchor="middle" fill="#f87171">HIPAA</text>

    <rect x="752" y="294" width="94" height="26" rx="13" fill="#180d0d" stroke="#3d1515" stroke-width="1"/>
    <text x="799" y="311" text-anchor="middle" fill="#f87171">ISO 27001</text>

    <rect x="856" y="294" width="76" height="26" rx="13" fill="#180d0d" stroke="#3d1515" stroke-width="1"/>
    <text x="894" y="311" text-anchor="middle" fill="#f87171">SOC 2</text>

    <rect x="942" y="294" width="82" height="26" rx="13" fill="#170f36" stroke="#2d1f6a" stroke-width="1"/>
    <text x="983" y="311" text-anchor="middle" fill="#a78bfa">Datadog</text>
  </g>

  <!-- Row 3 compact tags -->
  <g font-family="'Segoe UI',system-ui,sans-serif" font-size="11" font-weight="500">
    <rect x="362" y="332" width="72" height="22" rx="4" fill="#0d1f38" stroke="#1a3050" stroke-width="0.8"/>
    <text x="398" y="347" text-anchor="middle" fill="#7ab8f5">VMware</text>

    <rect x="444" y="332" width="80" height="22" rx="4" fill="#0d1f38" stroke="#1a3050" stroke-width="0.8"/>
    <text x="484" y="347" text-anchor="middle" fill="#7ab8f5">Azure DevOps</text>

    <rect x="534" y="332" width="74" height="22" rx="4" fill="#0d1f38" stroke="#1a3050" stroke-width="0.8"/>
    <text x="571" y="347" text-anchor="middle" fill="#7ab8f5">ArgoCD</text>

    <rect x="618" y="332" width="64" height="22" rx="4" fill="#0d1f38" stroke="#1a3050" stroke-width="0.8"/>
    <text x="650" y="347" text-anchor="middle" fill="#7ab8f5">Istio</text>

    <rect x="692" y="332" width="72" height="22" rx="4" fill="#0d1f38" stroke="#1a3050" stroke-width="0.8"/>
    <text x="728" y="347" text-anchor="middle" fill="#7ab8f5">Sentinel</text>

    <rect x="774" y="332" width="82" height="22" rx="4" fill="#0d1f38" stroke="#1a3050" stroke-width="0.8"/>
    <text x="815" y="347" text-anchor="middle" fill="#7ab8f5">PowerShell</text>

    <rect x="866" y="332" width="68" height="22" rx="4" fill="#0d1f38" stroke="#1a3050" stroke-width="0.8"/>
    <text x="900" y="347" text-anchor="middle" fill="#7ab8f5">Grafana</text>

    <rect x="944" y="332" width="64" height="22" rx="4" fill="#0d1f38" stroke="#1a3050" stroke-width="0.8"/>
    <text x="976" y="347" text-anchor="middle" fill="#7ab8f5">Helm</text>
  </g>

  <!-- URL bar -->
  <text x="364" y="388" font-family="'Fira Code','Courier New',monospace" font-size="13" fill="#4da6ff" opacity="0.75">🌐 devwarriors.com</text>
  <text x="534" y="388" font-family="'Fira Code','Courier New',monospace" font-size="13" fill="#2a3f5a">  ·  github.com/mvp-imran</text>

  <!-- Right-side decorative node network -->
  <g>
    <circle cx="1090" cy="100" r="4" fill="#4da6ff" opacity="0.5"/>
    <circle cx="1160" cy="160" r="3" fill="#818cf8" opacity="0.5"/>
    <circle cx="1210" cy="100" r="3" fill="#4da6ff" opacity="0.4"/>
    <circle cx="1100" cy="230" r="3" fill="#818cf8" opacity="0.4"/>
    <circle cx="1180" cy="280" r="4" fill="#4da6ff" opacity="0.4"/>
    <circle cx="1240" cy="220" r="2.5" fill="#818cf8" opacity="0.35"/>
    <circle cx="1140" cy="340" r="3" fill="#4da6ff" opacity="0.35"/>
    <circle cx="1220" cy="370" r="2.5" fill="#818cf8" opacity="0.3"/>
    <line x1="1090" y1="100" x2="1160" y2="160" stroke="#1e3a5f" stroke-width="1" opacity="0.6"/>
    <line x1="1160" y1="160" x2="1210" y2="100" stroke="#1e3a5f" stroke-width="1" opacity="0.5"/>
    <line x1="1160" y1="160" x2="1100" y2="230" stroke="#1e3a5f" stroke-width="1" opacity="0.6"/>
    <line x1="1100" y1="230" x2="1180" y2="280" stroke="#1e3a5f" stroke-width="1" opacity="0.5"/>
    <line x1="1180" y1="280" x2="1240" y2="220" stroke="#1e3a5f" stroke-width="1" opacity="0.5"/>
    <line x1="1180" y1="280" x2="1140" y2="340" stroke="#1e3a5f" stroke-width="1" opacity="0.5"/>
    <line x1="1140" y1="340" x2="1220" y2="370" stroke="#1e3a5f" stroke-width="1" opacity="0.4"/>
  </g>

  <!-- Corner bracket marks -->
  <g stroke="#4da6ff" stroke-width="1.5" fill="none" opacity="0.35">
    <path d="M 25 20 L 25 10 L 35 10"/>
    <path d="M 1255 10 L 1265 10 L 1265 20"/>
    <path d="M 25 400 L 25 410 L 35 410"/>
    <path d="M 1255 410 L 1265 410 L 1265 400"/>
  </g>
</svg>
